<svg xmlns="http://www.w3.org/2000/svg" xmlns:xlink="http://www.w3.org/1999/xlink" width="500" zoomAndPan="magnify" viewBox="0 0 375 374.999991" height="500" preserveAspectRatio="xMidYMid meet" version="1.0"><defs><clipPath id="dc242d9919"><path d="M 50.1875 79 L 170 79 L 170 179 L 50.1875 179 Z M 50.1875 79 " clip-rule="nonzero"/></clipPath><clipPath id="e97550cf29"><path d="M 74.898438 29.585938 L 324.6875 29.585938 L 324.6875 345.195312 L 74.898438 345.195312 Z M 74.898438 29.585938 " clip-rule="nonzero"/></clipPath></defs><rect x="-37.5" width="450" fill="#ffffff" y="-37.499999" height="449.999989" fill-opacity="1"/><rect x="-37.5" width="450" fill="#ffffff" y="-37.499999" height="449.999989" fill-opacity="1"/><g clip-path="url(#dc242d9919)"><path fill="#e58608" d="M 169.453125 125.777344 C 166.105469 113.089844 161.710938 104.316406 151.828125 94.792969 C 136.359375 79.894531 92.875 68.011719 73.1875 96.296875 C 64.636719 108.582031 65.449219 126.871094 75.4375 138.019531 C 70.210938 135.539062 65.902344 131.933594 62.535156 127.566406 C 55.3125 143.289062 50.972656 160.605469 50.1875 178.847656 C 85.027344 173.394531 101.738281 156.621094 123.335938 140.890625 C 111.949219 134.730469 103.375 122.5 100.941406 107.117188 C 112.480469 119.558594 147.71875 110.449219 169.453125 125.777344 " fill-opacity="1" fill-rule="nonzero"/></g><g clip-path="url(#e97550cf29)"><path fill="#e58608" d="M 187.425781 47.464844 C 185.570312 47.464844 183.726562 47.503906 181.890625 47.578125 C 154.410156 27.855469 120.019531 22.894531 90.96875 40.007812 C 84.375 43.894531 79.042969 48.988281 74.929688 54.773438 C 76.496094 53.589844 78.144531 52.480469 79.882812 51.457031 C 132.324219 20.558594 202.15625 61.589844 217.332031 131.527344 C 243.039062 147.308594 255.941406 175.117188 256.113281 185.265625 L 256.105469 185.257812 C 253.582031 183.597656 250.277344 185.710938 250.726562 188.695312 C 250.882812 189.722656 251.105469 190.839844 251.421875 192.015625 C 255.351562 206.472656 267.402344 220.574219 275.523438 233.472656 C 276.425781 234.910156 277.023438 236.53125 277.164062 238.222656 C 277.898438 246.925781 267.191406 246.015625 265.238281 247.902344 C 263.550781 249.53125 265.613281 253.027344 260.167969 256.457031 C 244.324219 266.4375 245.355469 281.566406 249.273438 283.214844 C 244.324219 283.390625 240.523438 277.84375 240.773438 271.875 C 238.703125 279.425781 238.070312 290.597656 246.304688 295.550781 C 235.296875 293.054688 229.433594 287.507812 222.0625 270.808594 C 217.027344 259.394531 208.058594 250.21875 195.859375 247.601562 C 195.589844 247.542969 195.316406 247.488281 195.042969 247.429688 C 186.132812 245.578125 177.234375 243.828125 168.371094 241.765625 C 149.21875 237.3125 140.027344 223.988281 136.289062 207.640625 C 136.234375 225.921875 147.304688 241.480469 165.289062 247.472656 C 151.234375 258.261719 134.257812 300.816406 159.644531 345.398438 C 159.570312 344.984375 157.507812 332.917969 160.09375 319.476562 C 168.925781 321.261719 178.066406 322.199219 187.425781 322.199219 C 263.289062 322.199219 324.792969 260.699219 324.792969 184.832031 C 324.792969 108.96875 263.289062 47.464844 187.425781 47.464844 " fill-opacity="1" fill-rule="nonzero"/></g></svg>