<?xml version="1.0" encoding="UTF-8"?>
<svg version="1.1" xmlns="http://www.w3.org/2000/svg" width="500" height="500">
<path d="M0 0 C0.6607251 0.30317139 1.3214502 0.60634277 2.00219727 0.91870117 C5.08672159 2.39466829 7.90976259 3.87680914 10.68115234 5.8984375 C17.82862101 11.06101246 23.60111983 12.17050204 32.35601807 12.33508301 C35.80273955 12.40322763 39.24425074 12.58599439 42.6875 12.75 C44.65976562 12.83701172 44.65976562 12.83701172 46.671875 12.92578125 C53.69224284 13.31665326 60.42285662 14.44706124 67.25 16.125 C68.04986328 16.32077637 68.84972656 16.51655273 69.67382812 16.71826172 C93.45931205 22.70944333 115.50282293 32.52615153 135.25 47.125 C135.78915039 47.51461914 136.32830078 47.90423828 136.88378906 48.30566406 C175.23659429 76.15953027 199.72985198 117.84317937 208.25 164.125 C208.51707764 165.51428711 208.51707764 165.51428711 208.78955078 166.93164062 C210.43121279 176.30334475 210.64676188 185.51544674 210.625 195 C210.62512085 195.81148499 210.6252417 196.62296997 210.62536621 197.45904541 C210.59667411 211.03074375 209.41844813 223.89390009 206.25 237.125 C205.95767868 238.46470107 205.6659667 239.80453532 205.375 241.14453125 C197.81946084 272.81708156 180.2304468 300.55337607 158.25 324.125 C157.52554687 324.91519531 156.80109375 325.70539063 156.0546875 326.51953125 C124.02072929 360.12803995 77.48633497 377.72274331 31.69140625 379.3125 C19.36861229 379.56734277 6.87189557 378.66736132 -5.265625 376.49609375 C-6.08546875 376.37363281 -6.9053125 376.25117188 -7.75 376.125 C-10.73943234 379.11443234 -9.82341771 387.17864377 -9.84765625 391.15625 C-9.84108225 393.31252182 -9.82926484 395.46878333 -9.8125 397.625 C-9.80798828 398.73359375 -9.80347656 399.8421875 -9.79882812 400.984375 C-9.78713158 403.69797399 -9.77074086 406.41145761 -9.75 409.125 C-22.45701415 397.41149226 -26.99303011 370.23272114 -27.87109375 353.86816406 C-28.98761701 326.16722189 -22.44533522 299.2566954 -3.75 278.125 C-4.46929687 278.00898438 -5.18859375 277.89296875 -5.9296875 277.7734375 C-17.94521537 275.01086461 -27.66773265 265.30813354 -34.1875 255.25 C-38.97738405 246.52853482 -41.30321948 237.02118856 -41.75 227.125 C-41.09 227.125 -40.43 227.125 -39.75 227.125 C-39.47027344 228.08019531 -39.19054687 229.03539062 -38.90234375 230.01953125 C-34.33081411 245.00636715 -27.37281568 256.41325692 -13.765625 264.66796875 C-2.02206916 270.34199249 10.57665388 272.4762027 23.28100586 274.97143555 C41.35064506 278.54617032 57.85516329 283.72868678 68.6875 299.875 C71.43399892 304.4481798 73.8280321 309.18638085 76.24853516 313.93652344 C82.64596395 326.44483179 87.746598 335.61848976 101.25 341.125 C100.26 339.64 100.26 339.64 99.25 338.125 C95.26259082 329.84345786 95.19994361 321.03613221 97.25 312.125 C99.74917763 314.62417763 100.25868864 316.92455797 101.2734375 320.25 C102.51554616 322.63484863 103.79564134 323.15537683 106.25 324.125 C106.20359375 323.43535156 106.1571875 322.74570312 106.109375 322.03515625 C105.73899067 312.3919357 108.47434623 305.73122949 114.3359375 298.15625 C116.671713 295.67746784 119.24052373 293.70288145 121.9375 291.625 C126.56208986 288.08898804 126.56208986 288.08898804 128.625 282.875 C129.11328125 280.91015625 129.11328125 280.91015625 130.25 279.125 C133.54034475 277.4647343 136.79688419 276.31732227 140.31640625 275.23046875 C143.52249657 274.34784076 143.52249657 274.34784076 145.25 271.125 C146.67079278 260.97648012 138.43073784 252.30291186 132.9375 244.4375 C111.25 212.95462806 111.25 212.95462806 111.25 198.125 C112.5 196.37890625 112.5 196.37890625 114.25 195.125 C115.57 195.125 116.89 195.125 118.25 195.125 C113.57400878 177.66639961 105.90823047 162.93079924 94.25 149.125 C93.45851563 148.16980469 92.66703125 147.21460938 91.8515625 146.23046875 C85.54222399 138.93082954 77.54568219 130.8685729 68.54296875 126.9453125 C64.82910887 123.99700125 64.44464096 119.97917106 63.375 115.5 C52.78381114 75.20097547 27.86151936 42.1153277 -7.6875 20.375 C-17.51728075 14.85061135 -27.77804998 11.21536968 -38.625 8.3125 C-39.397229 8.10544434 -40.16945801 7.89838867 -40.96508789 7.68505859 C-64.93593438 1.5837624 -92.20420797 4.90682265 -113.5625 17.4375 C-114.71553991 18.140787 -115.86794195 18.84512148 -117.01953125 19.55078125 C-119.75 21.125 -119.75 21.125 -121.75 21.125 C-116.25772506 8.06559069 -100.99428004 0.8015433 -88.875 -4.625 C-59.22420126 -16.38992819 -28.51733061 -13.14840497 0 0 Z " fill="#E5870B" transform="translate(222.75,50.875)"/>
<path d="M0 0 C14.16873252 11.07061317 24.54819102 26.48955134 29 44 C28.67 44.99 28.34 45.98 28 47 C27.175 46.54109375 26.35 46.0821875 25.5 45.609375 C24.345 44.99578125 23.19 44.3821875 22 43.75 C20.88625 43.14671875 19.7725 42.5434375 18.625 41.921875 C5.52345926 35.9536008 -9.24665712 34.91153472 -23.375 33.4375 C-49.74466289 30.66742314 -49.74466289 30.66742314 -60 25 C-58.99929079 39.67706839 -49.76147716 52.56468467 -39 62 C-37.0446707 63.46961055 -35.10065421 64.73960747 -33 66 C-34.47627645 69.69880254 -36.37514455 71.26142888 -39.625 73.5 C-43.00327122 75.86917722 -46.34983808 78.24534593 -49.6171875 80.765625 C-73.56941444 99.22669443 -99.44236424 114.39767709 -130 118 C-131.36637725 95.48007862 -124.45435917 68.91601955 -114 49 C-113.57589844 49.37511719 -113.15179688 49.75023437 -112.71484375 50.13671875 C-108.63482662 53.69664579 -104.4486524 56.91317997 -100 60 C-100.33773437 59.34773438 -100.67546875 58.69546875 -101.0234375 58.0234375 C-108.11434618 44.12853552 -109.3706401 32.4943099 -105.25390625 17.234375 C-100.97217816 5.13135694 -91.22875729 -4.63505094 -79.875 -10.25 C-53.81883823 -21.47696371 -22.97172666 -15.96894958 0 0 Z " fill="#E5880D" transform="translate(197,121)"/>
<path d="M0 0 C0.66 0.33 1.32 0.66 2 1 C-0.97 3.97 -3.94 6.94 -7 10 C-6.67 10.66 -6.34 11.32 -6 12 C-10.75 15 -10.75 15 -13 15 C-11.38989473 10.92623969 -8.46177729 8.23492931 -5.375 5.25 C-4.859375 4.74339844 -4.34375 4.23679687 -3.8125 3.71484375 C-2.54616661 2.47196098 -1.2736856 1.23534724 0 0 Z " fill="#ECA74C" transform="translate(114,57)"/>
<path d="M0 0 C0.66 0 1.32 0 2 0 C2.99 3.96 3.98 7.92 5 12 C4.34 12 3.68 12 3 12 C2.67 12.66 2.34 13.32 2 14 C1.34 9.38 0.68 4.76 0 0 Z " fill="#EEAF5B" transform="translate(181,278)"/>
<path d="" fill="#F9E1C1" transform="translate(0,0)"/>
</svg>
